<svg width="420" height="162" viewBox="0 0 420 162" fill="none"
  xmlns="http://www.w3.org/2000/svg">
  <path d="M90.7213 95.0157h14.5947v25.6203H90.7213v30.449H57.4897v-30.449H1.9722L0 100.337 57.4897 7.90695v-.29562h33.2316V95.0157Zm-59.0675 0h25.8359V50.8701l-2.0708 3.3503-23.7651 40.7953ZM405.406 95.0157H420v25.6203h-14.594v30.449h-33.232v-30.449h-55.517l-1.973-20.299 57.49-92.43005v-.29562h33.232V95.0157Zm-59.068 0h25.836V50.8701l-2.071 3.3503-23.765 40.7953Z" fill="#050019"/>
  <path opacity=".3" d="M300.278 83.6266c0-20.7899-8.095-40.342-22.801-55.0412-4.502-4.5012-9.46-8.3835-14.77-11.6047-.127-.1828-.26-.3657-.401-.5415-.211-.2532-.429-.4994-.675-.7315-.239-.2321-.478-.436-.731-.633-1.02-.7877-2.174-1.3574-3.362-1.7231-.879-.2672-1.759-.429-2.645-.5134-10.05-4.61372-21.064-7.04718-32.451-7.04718-20.79 0-40.342 8.09508-55.041 22.80138C152.702 43.2987 144.6 62.8437 144.6 83.6337c0 20.7903 8.095 40.3423 22.801 55.0413 2.363 2.363 4.853 4.55 7.448 6.562.668 2.841 1.822 5.584 3.517 8.018 1.885 2.707 4.487 5.014 7.638 6.301 3.122 1.266 6.632 1.576 9.938.704 1.512-.401 2.968-1.069 4.255-1.998 7.124 2.11 14.6 3.214 22.238 3.214 13.427 0 26.332-3.383 37.747-9.727.042.859.155 1.738.422 2.61.155.492.317.942.577 1.442.253.478.555.921.907 1.322.696.802 1.583 1.491 2.701 1.871.562.175 1.174.267 1.793.218.619-.05 1.231-.232 1.766-.528 1.09-.598 1.814-1.561 2.25-2.532.218-.492.366-.998.464-1.512.099-.513.134-1.041.127-1.519-.007-.83-.091-1.611-.183-2.356 1.182.07 2.391-.042 3.545-.345 2.391-.619 4.487-1.997 6.133-3.685 1.652-1.695 2.918-3.693 3.833-5.824.45-1.069.823-2.187 1.076-3.305.274-1.111.45-2.237.591-3.355.253-2.138.309-4.255.302-6.337 8.96-12.934 13.792-28.2378 13.792-44.2874Zm-74.171-26.4445c.232.2391.457.4782.71.6963l.38.3305.408.3095c.26.211.569.3868.858.5697.295.1687.591.3164.893.4712 1.21.5767 2.511.9283 3.798 1.0971 1.294.1688 2.574.1618 3.826.0563.647-.0563 1.287-.1407 1.92-.2462 7.237 5.1553 11.97 13.6092 11.97 23.1531 0 15.6698-12.751 28.4204-28.421 28.4204-15.669 0-28.42-12.7506-28.42-28.4204 0-9.2064 4.402-17.4 11.21-22.5974-.133 1.8075-.408 3.622-.731 5.4506-.429 2.4194-.964 4.8529-1.393 7.3356-.218 1.2449-.408 2.4967-.541 3.7768-.134 1.287-.197 2.6163-.071 3.9807.064.6822.183 1.3645.366 2.0467.183.6822.443 1.3574.774 1.9974.661 1.2659 1.632 2.4264 2.919 3.2352.64.4009 1.371.7033 2.131.8581.759.1547 1.54.1688 2.285.0703 1.505-.1969 2.856-.851 3.995-1.7231.577-.4361 1.083-.9495 1.54-1.5051.458-.5697.837-1.1746 1.154-1.7935.626-1.2519 1.02-2.5811 1.245-3.9034.225-1.3222.302-2.6374.302-3.9315-.007-1.287-.07-2.5671-.176-3.833-.443-5.085-1.596-9.966-2.335-14.8188-.119-.7948-.232-1.5965-.33-2.3913 1.962-.429 4.002-.6611 6.09-.6611.732 0 1.456.0352 2.174.0914.422.64.907 1.2801 1.47 1.8779Z" fill="#050019"/>
  <path d="M213.602 3.45703c-42.185 0-76.387 34.19507-76.387 76.38677 0 42.1922 34.195 76.3872 76.387 76.3872s76.387-34.195 76.387-76.3872c0-42.1917-34.203-76.38677-76.387-76.38677Zm0 106.26397c-9.495 0-17.949-4.424-23.421-11.3238v-.007c-4.044-5.099-6.456-11.5414-6.456-18.5534 0-16.4997 13.377-29.8767 29.877-29.8767 8.749 0 16.612 3.7557 22.077 9.7479 4.846 5.317 7.799 12.3783 7.799 20.1358 0 16.4997-13.377 29.8772-29.876 29.8772Z" fill="#fb6d3a" stroke="#050019" stroke-width="5.1727" stroke-miterlimit="10"/>
  <path opacity=".55" d="M213.602 3.17578c-42.185 0-76.387 34.19502-76.387 76.38682 0 15.1071 4.382 29.1874 11.949 41.0384-6.224-11.056-9.769-23.8143-9.769-37.4023 0-42.1847 34.195-76.3868 76.387-76.3868 27.085 0 50.871 14.0944 64.431 35.3415-13.089-23.2586-38.015-38.97762-66.611-38.97762Z" fill="#fff"/>
  <path opacity=".3" d="M247.22 60.7465s-5.655-3.172-11.541-1.0409c-5.465-5.9852-13.335-9.748-22.077-9.748-16.5 0-29.877 13.3771-29.877 29.8768 0 7.012 2.412 13.4544 6.456 18.5534v.007c-.049.2392-1.913 10.3392 11.225 18.0402 0 0-18.553.97-26.993-6.717-8.447-7.687-5.444-39.3572-4.923-43.1551.513-3.7979-1.554-12.1884 0-14.7344 1.547-2.546 7.919-8.1303 11.668-10.6412 3.748-2.5038 15.367-9.3962 15.367-9.3962s14.411-.3869 16.472 0c2.061.3868 18.483 5.7812 18.483 5.7812l15.74 23.1742Z" fill="#050019"/>
  <path opacity=".3" d="M271.843 30.4199c5.788 10.7607 9.08 23.0687 9.08 36.1433 0 42.1848-34.195 76.3868-76.387 76.3868-23.336 0-44.231-10.465-58.248-26.958 12.891 23.955 38.197 40.237 67.307 40.237 42.184 0 76.386-34.195 76.386-76.3872 0-18.8418-6.822-36.1011-18.138-49.4219Z" fill="#050019"/>
  <path d="M213.602 157.685c-20.79 0-40.342-8.095-55.042-22.801-14.699-14.699-22.801-34.251-22.801-55.0413 0-20.79 8.095-40.3421 22.801-55.0413C173.26 10.1022 192.812 2 213.602 2s40.342 8.0951 55.041 22.8014c14.699 14.6992 22.801 34.2513 22.801 55.0413 0 20.7903-8.095 40.3423-22.801 55.0413-14.706 14.699-34.251 22.801-55.041 22.801Zm0-152.77328c-41.313 0-74.931 33.61128-74.931 74.93098 0 41.3193 33.611 74.9313 74.931 74.9313 41.319 0 74.931-33.612 74.931-74.9313 0-41.3197-33.619-74.93098-74.931-74.93098Zm0 106.26328c-17.281 0-31.333-14.059-31.333-31.3323 0-17.2734 14.059-31.3326 31.333-31.3326 17.273 0 31.332 14.0592 31.332 31.3326 0 17.2733-14.059 31.3323-31.332 31.3323Zm0-59.7532c-15.67 0-28.421 12.7511-28.421 28.4209s12.751 28.4213 28.421 28.4213c15.669 0 28.421-12.7515 28.421-28.4213 0-15.6698-12.752-28.4209-28.421-28.4209Z" fill="#050019"/>
  <path d="M286.057 73.9923c-2.293-4.3957-6.013-7.9123-8.383-12.2658-2.926-5.3944-3.594-11.682-5.43-17.5336-1.843-5.8516-5.528-11.8297-11.464-13.3629-5.95-1.5333-4.557-12.9621-8.756-17.5195-.113-.1266-.225-.2392-.345-.3517-2.651-2.4686-6.695-2.8555-10.24-2.117-3.545.7385-6.808 2.4335-10.205 3.6924-3.397 1.2519-7.167 2.0748-10.62.9917-5.669-1.7724-10.17-10.28947-16.106-10.25431-4.206.02814-6.907 5.41551-9.558 8.67891-2.652 3.2633-7.061 5.9641-11.225 6.5408-11.731 1.6035-21.135 12.4205-23.322 24.0603-.851 4.4942-4.508 8.5734-8.299 11.1405-3.791 2.5671-8.067 4.6278-10.951 8.1795-4.578 5.6335-4.578 13.9397-1.884 20.6774 2.693 6.7448 7.659 12.2869 12.526 17.674 2.229 2.462 3.418 5.866 3.608 9.186.19 3.312.267 6.976 2.503 9.424 1.217 1.336 2.842 2.054 4.586 2.602h.007c1.976 1.716 3.031 4.347 3.496 6.949.506 2.813.443 5.704.829 8.538.669 4.825 2.807 9.593 6.387 12.836.647.59 1.343 1.125 2.081 1.61 4.832 3.13 11.739 3.242 16.092-.52 3.003-2.603 4.558-6.618 6.365-10.276.246-.014.408-.028.408-.028 6.098.76 12.449 1.463 18.603 1.224 2.834-.113 5.626-.415 8.334-1.02 3.228-.71 6.337-1.836 9.248-3.516l1.449.063c3.721-3.327 9.643-1.737 13.961.759.872.5 1.744 1.041 2.616 1.576 1.484.907 2.982 1.807 4.523 2.525 2.067.963 4.213 1.596 6.491 1.47 5.964-.338 10.444-5.964 11.907-11.76 1.463-5.788.718-11.872.851-17.843.141-5.971 1.421-12.406 5.88-16.3869 7.04-6.2806 8.391-17.3015 4.037-25.6428Zm-92.563 39.2797c-2.244-1.413-4.382-3.059-6.379-4.902-17.294-15.9158-10.001-43.0847-8.552-45.6096 3.347-5.8235 5.83-12.1955 9.966-17.4914 1.048-1.3433 2.236-2.6093 3.544-3.7487 3.847-3.3548 8.686-5.5421 13.659-4.895.492.0633.956.1758 1.392.3376 6.253 2.2646 7.104 13.6653 13.279 17.196 3.024 1.7301 6.597 1.6809 10.106 1.0479 1.372-.2462 2.729-.5767 4.052-.9284.337-.0914.675-.1828 1.019-.2743 1.245-.3305 2.518-.6541 3.798-.9002l2.835 2.1592c1.87 1.6387 3.551 3.4884 5.014 5.4928 3.489 4.7614 5.746 10.4091 6.386 16.2747.176 1.5754.099 3.2423-.176 4.9724-1.357 8.5031-7.581 18.272-12.793 24.124-.007.007-.007.014-.014.014-4.607 4.065-9.312 7.539-13.553 9.712-11.042 5.648-23.364 3.89-33.583-2.581Z" fill="#503e9d"/>
  <g opacity=".55">
    <path opacity=".55" d="M251.672 12.951c-2.651-2.4686-6.695-2.8555-10.24-2.117-3.545.7385-6.808 2.4335-10.205 3.6924-3.397 1.2519-7.167 2.0748-10.62.9917-5.669-1.7724-10.17-10.28949-16.106-10.25432-4.206.02813-6.907 5.41552-9.558 8.67892-2.652 3.2633-7.061 5.964-11.225 6.5408-11.731 1.6035-21.135 12.4204-23.322 24.0603-.851 4.4941-4.508 8.5733-8.299 11.1404-3.791 2.5671-8.067 4.6278-10.951 8.1796-4.578 5.6335-4.578 13.9396-1.884 20.6773 2.693 6.7448 7.659 12.2869 12.526 17.6739 2.229 2.462 3.418 5.866 3.608 9.186.189 3.312.267 6.976 2.503 9.424.605.668 1.316 1.182 2.089 1.597-1.266-2.328-1.343-5.282-1.505-8.011-.19-3.313-1.385-6.717-3.608-9.185-4.867-5.3878-9.832-10.9299-12.526-17.6747-2.694-6.7448-2.694-15.0438 1.885-20.6774 2.884-3.5517 7.16-5.6124 10.951-8.1795 3.783-2.5671 7.448-6.6463 8.299-11.1405 2.187-11.6327 11.59-22.4567 23.322-24.0603 4.163-.5696 8.58-3.2704 11.224-6.5337 2.652-3.2704 5.353-8.65078 9.558-8.67891 5.936-.03516 10.438 8.48191 16.106 10.25431 3.454 1.0831 7.223.2602 10.62-.9917 3.397-1.2519 6.661-2.9539 10.205-3.6924 2.856-.5908 6.021-.4571 8.532.9003-.38-.6893-.837-1.3012-1.379-1.8005Zm5.029 67.0819c-.915-8.3342-5.099-16.2535-11.401-21.7675l-.225-.1688c4.691 5.2326 7.765 11.9352 8.538 18.9261.176 1.5754.099 3.2423-.176 4.9724-1.357 8.5031-7.581 18.2719-12.793 24.1239-.007.007-.007.014-.014.014-4.607 4.065-9.312 7.539-13.553 9.713-13.081 6.702-27.949 3.003-38.999-6.605.662.732 1.372 1.449 2.125 2.146 11.133 10.247 26.493 14.375 39.962 7.469 4.241-2.173 8.946-5.641 13.553-9.713l.014-.014c5.211-5.852 11.436-15.6206 12.793-24.1237.274-1.7301.352-3.397.176-4.9724ZM174.406 151.383c-4.297-3.214-6.85-8.482-7.589-13.834-.386-2.834-.33-5.725-.83-8.538-.267-1.484-.717-2.968-1.427-4.29.337.126.675.246 1.019.351h.008c1.976 1.716 3.031 4.347 3.495 6.949.506 2.813.443 5.704.83 8.538.541 3.904 2.047 7.772 4.494 10.824Z" fill="#fff"/>
  </g>
  <path opacity=".55" d="M235.573 54.0035c-.344.0915-.682.1829-1.02.2743-4.684 1.2449-9.951 2.2787-14.157-.1266-6.175-3.5306-7.026-14.9242-13.279-17.1959-.042-.0704-.084-.1407-.133-.204 1.125-1.702 2.236-3.2493 3.354-4.9583 2.216 1.3011 3.524 3.7205 4.41 6.1328.886 2.4054 1.491 4.9584 2.806 7.1668 1.808 3.0312 4.846 5.1763 8.117 6.5126 3.157 1.2871 6.533 1.8849 9.902 2.3983ZM164.25 99.1976c-1.209-.5204-2.208-1.709-2.679-2.982-.746-2.0115-.584-4.227-.303-6.351.155-1.1675.345-2.335.436-3.5025.12-1.5543-1.104-2.8836-2.658-2.8836.295 2.117-.099 4.2621-.38 6.3861-.281 2.124-.443 4.3395.302 6.351.711 1.927 2.645 3.6361 4.649 3.2.211-.0492.429-.1195.633-.218ZM267.236 114.721c-.893 1.54-2.539 2.708-4.234 2.342-1.786-.394-2.841-2.3-3.108-4.114-.268-1.808.014-3.665-.253-5.472-.268-1.815-1.323-3.721-3.109-4.115l.492-.246c1.934-.977 4.304.183 4.635 2.321 0 .014.007.028.007.042.267 1.808-.014 3.665.253 5.472.268 1.815 1.322 3.721 3.109 4.115.759.161 1.519.007 2.208-.345Z" fill="#fff"/>
  <path d="M164.032 75.8212c4.297-1.8286 7.603-5.099 10.269-8.7773 1.35-1.8427 2.524-3.8049 3.629-5.8446 1.097-2.0466 2.124-4.1425 3.186-6.2595 1.055-2.1169 2.18-4.2269 3.425-6.2946 1.259-2.0607 2.644-4.0722 4.339-5.9008.204-.2321.415-.4572.64-.6682l.661-.654c.465-.415.908-.844 1.393-1.2308.942-.8018 1.976-1.5122 3.038-2.1662 1.062-.6541 2.202-1.1957 3.376-1.6669 1.189-.429 2.42-.7807 3.685-.9635.317-.0563.641-.0704.957-.1055l.478-.0422c.162-.0141.324-.0071.486-.0071h.963l.964.0844c.309.0141.661.0774 1.005.1477.176.0282.345.0774.514.1266.169.0493.337.0915.506.1548.661.2531 1.301.5696 1.864.9705 1.146.7877 2.018 1.8075 2.764 2.8344.738 1.0409 1.336 2.1099 1.906 3.179 1.118 2.138 2.089 4.2691 3.263 6.168.584.9425 1.217 1.8427 1.941 2.5812.183.1758.359.3727.556.5275l.288.2461.303.2251c.197.1617.408.2672.612.4079.218.1266.45.2321.675.3517 1.843.858 4.009 1.069 6.203.8861 2.209-.1617 4.431-.6892 6.696-1.2589 1.146-.2884 2.307-.5767 3.488-.8229 1.182-.2461 2.398-.4571 3.636-.5275 1.238-.0703 2.504-.021 3.742.2392 1.231.2602 2.44.7244 3.46 1.4418.148.1055.183.3094.078.4571-.078.1055-.197.1547-.317.1336-2.314-.3797-4.487-.2461-6.703.1196-1.104.1829-2.215.4009-3.326.6682-1.111.2672-2.23.5767-3.362.9002-2.279.647-4.663 1.2378-7.16 1.4629-1.252.1055-2.532.1125-3.826-.0563-1.287-.1617-2.588-.5204-3.798-1.0971-.295-.1548-.598-.3025-.893-.4713-.288-.1899-.591-.3586-.858-.5696l-.408-.3095-.38-.3306c-.26-.218-.478-.4641-.71-.6962-.907-.9636-1.618-2.0186-2.258-3.0806-1.266-2.131-2.201-4.3253-3.263-6.3649-.527-1.0198-1.076-2.0045-1.695-2.8977-.626-.8791-1.315-1.6739-2.117-2.2295-.394-.2884-.823-.4923-1.259-.6681-.112-.0422-.225-.0704-.337-.1055-.113-.0352-.226-.0774-.345-.0915-.232-.0422-.457-.0984-.739-.1055l-.794-.0633-.802.0071c-.134.007-.267 0-.401.007l-.401.0422c-.267.0352-.534.0422-.802.0914-1.062.1618-2.11.4712-3.136.844-1.013.415-2.005.8932-2.947 1.477-.936.5907-1.85 1.2308-2.687 1.9692-.436.3517-.83.7456-1.245 1.1253l-.584.5979c-.197.1969-.386.4008-.569.6118-1.491 1.6599-2.785 3.5447-3.981 5.5-1.189 1.9692-2.251 4.0299-3.334 6.1188-1.076 2.0818-2.152 4.2058-3.348 6.2806-.59 1.0409-1.223 2.0747-1.891 3.0805-.69.9987-1.386 1.9904-2.16 2.9258-1.547 1.8778-3.298 3.615-5.31 5.0216-.998.7104-2.074 1.3082-3.186 1.8146l-.844.3516c-.281.1126-.576.197-.865.2954-.569.211-1.174.3095-1.758.4572-.169.0422-.345-.0633-.387-.2321-.035-.1547.042-.3095.183-.3728h.014Z" fill="#050019"/>
  <path d="M180.265 62.2734c-1.716 5.4647-2.687 11.1897-2.898 16.9147-.113 2.8624.007 5.7319.352 8.5593.183 1.4136.429 2.8132.738 4.1917.331 1.3785.71 2.7359 1.189 4.0581.492 1.3152 1.048 2.6093 1.709 3.8331.675 1.2237 1.435 2.3847 2.286 3.4747.872 1.076 1.835 2.053 2.89 2.954 1.09.921 2.23 1.793 3.39 2.63 4.649 3.313 9.832 5.936 15.311 7.427 1.365.373 2.75.675 4.15.879 1.392.204 2.799.352 4.206.373 1.406.028 2.806-.042 4.198-.204 1.386-.176 2.757-.464 4.101-.851 1.343-.38 2.644-.893 3.896-1.491.626-.289 1.245-.647 1.864-.992l.928-.52c.303-.183.605-.38.907-.57l.908-.57.45-.288.443-.309 1.765-1.231 1.723-1.301c.584-.422 1.147-.872 1.709-1.323 4.516-3.594 8.764-7.567 12.801-11.7379 2.004-2.1029 3.987-4.2269 5.851-6.4564 1.878-2.2225 3.686-4.4942 5.374-6.8644l.007-.007c.154-.218.45-.2672.668-.1125.204.1477.26.422.133.64l-1.146 1.8919c-.387.626-.809 1.2308-1.217 1.8497-.401.6189-.83 1.2168-1.259 1.8216-.429.5978-.844 1.2097-1.301 1.7864-1.765 2.3631-3.65 4.6349-5.57 6.8714-1.962 2.2014-3.967 4.3672-6.084 6.4282-.513.528-1.062 1.027-1.596 1.54-.542.507-1.062 1.027-1.625 1.512l-1.667 1.47c-.555.493-1.139.95-1.702 1.428-2.286 1.899-4.691 3.657-7.251 5.226-.316.197-.633.401-.956.59l-.992.542c-.661.359-1.315.731-2.026 1.048-1.392.647-2.827 1.203-4.304 1.611-1.477.415-2.982.717-4.494.907-1.519.176-3.045.246-4.565.218-1.519-.021-3.031-.183-4.529-.401-1.498-.218-2.975-.542-4.431-.935-5.83-1.59-11.253-4.347-16.12-7.814-1.216-.872-2.405-1.787-3.544-2.75-1.175-.999-2.272-2.11-3.243-3.313-.956-1.217-1.8-2.504-2.539-3.847-.731-1.3503-1.336-2.7499-1.863-4.1776-.521-1.4277-.929-2.8906-1.28-4.3605-.331-1.47-.591-2.954-.781-4.445-.366-2.982-.485-5.9852-.366-8.9672.225-5.9711 1.224-11.886 3.017-17.5969.211-.6681.929-1.0409 1.597-.8369.626.2039.999.9213.788 1.5965Z" fill="#050019"/>
  <path d="M240.63 107.406c-.303 0-.605-.106-.844-.324-.528-.471-.57-1.273-.106-1.8 6.759-7.582 13.603-19.6157 12.667-28.1257-.992-8.9954-5.964-17.5265-13.314-22.8154-.569-.408-.703-1.2097-.288-1.7794.408-.5697 1.21-.7033 1.779-.2884 7.927 5.7039 13.293 14.8962 14.362 24.6018 1.02 9.2837-6.175 22.1121-13.3 30.1021-.26.288-.611.429-.956.429Z" fill="#050019"/>
  <path d="M174.118 136.559c-.5-2.117-.957-4.227-1.815-6.056-.436-.907-.97-1.73-1.624-2.391-.655-.668-1.435-1.167-2.314-1.568-1.773-.802-3.869-1.175-6.028-1.829-1.083-.33-2.194-.724-3.27-1.35-1.069-.612-2.075-1.477-2.806-2.532-.732-1.055-1.196-2.23-1.484-3.383-.289-1.161-.429-2.3-.521-3.418-.042-.556-.077-1.111-.112-1.653l-.05-.809c-.021-.26-.035-.499-.063-.752-.105-.992-.295-1.984-.591-2.933-.295-.95-.675-1.871-1.16-2.722-.239-.429-.514-.837-.795-1.231-.155-.19-.288-.387-.45-.569l-.239-.275-.274-.302c-1.456-1.611-2.912-3.2284-4.326-4.9093-2.82-3.3548-5.486-6.9628-7.406-11.0491-1.962-4.0651-2.975-8.6718-2.665-13.2644.162-2.2928.675-4.5997 1.624-6.7448.472-1.0761 1.062-2.1029 1.752-3.0594.689-.9636 1.484-1.8357 2.328-2.6304 1.695-1.5825 3.579-2.8414 5.429-4.0089l2.743-1.7301c.45-.2884.886-.5768 1.322-.8721.422-.2884.83-.5908 1.238-.9073 1.604-1.2589 3.06-2.7289 4.213-4.3676.577-.8158 1.076-1.6809 1.47-2.5741.197-.4431.366-.9003.499-1.3574.071-.2321.127-.4572.183-.6893l.155-.7595c.879-4.4098 2.518-8.6859 4.958-12.5049 2.434-3.805 5.739-7.1738 9.79-9.4033 1.006-.5627 2.061-1.048 3.144-1.4418 1.083-.4009 2.194-.7315 3.327-.9635.562-.1337 1.146-.204 1.695-.3025.513-.0844 1.041-.1547 1.554-.2461.507-.1055 1.027-.1829 1.519-.3095l.753-.1758.731-.211c.964-.2884 1.892-.633 2.736-1.0831.844-.4501 1.59-.9987 2.279-1.6739.689-.6681 1.336-1.4699 2.018-2.3069l.486-.6118.471-.619.935-1.3011c.633-.88617 1.273-1.7864 1.998-2.67961.724-.88618 1.519-1.77235 2.504-2.55303.492-.38682 1.033-.75254 1.645-1.04793.605-.29539 1.28-.51342 1.977-.61892.344-.04923.71-.07033 1.048-.07033.337 0 .675.02813.998.07736.661.09143 1.294.26726 1.892.49232 1.196.45716 2.23 1.09717 3.172 1.78642.943.68925 1.801 1.42773 2.623 2.16621 1.646 1.47695 3.165 2.98201 4.776 4.17771.802.5907 1.632 1.1042 2.462 1.4347.21.0844.407.1547.632.211.226.0633.444.1266.676.1688.45.1055.921.1547 1.392.1969 1.899.1196 3.897-.2321 5.845-.8369 1.948-.5978 3.903-1.4629 5.936-2.2928 2.032-.8299 4.163-1.63169 6.477-2.06775 2.321-.41495 4.769-.42199 7.153.30242 1.181.36573 2.342.92833 3.362 1.72313.253.1969.492.4009.731.633.246.2321.464.4853.675.7314.408.5134.76 1.048 1.048 1.5895.584 1.0901.985 2.1943 1.323 3.2845.337 1.0901.604 2.1662.858 3.2282.513 2.1029.97 4.1917 1.772 5.9289.401.858.893 1.5965 1.477 2.0677.295.2321.605.415.956.5346.092.0351.169.0492.275.0844l.443.1266c.295.0844.584.1899.872.2954 2.3.858 4.283 2.3631 5.851 4.1073 3.144 3.5166 4.903 7.8982 6.014 12.1743 1.139 4.2621 1.892 8.5031 3.432 12.3361.76 1.9201 1.737 3.6713 2.954 5.3804 1.203 1.7161 2.56 3.39 3.875 5.1764 1.301 1.7864 2.581 3.7135 3.489 5.8586.914 2.131 1.505 4.3816 1.779 6.6744.541 4.5786-.246 9.333-2.398 13.4684-1.076 2.0678-2.504 3.9527-4.234 5.5351l-.57.535c-.169.168-.345.337-.506.52-.331.352-.64.731-.929 1.125-.576.788-1.076 1.646-1.498 2.546-.844 1.808-1.378 3.798-1.709 5.838-.33 2.046-.45 4.121-.457 6.252-.035 4.255.302 8.651-.232 13.145-.141 1.118-.317 2.244-.591 3.355-.253 1.125-.626 2.243-1.076 3.305-.914 2.139-2.18 4.136-3.833 5.824-1.646 1.688-3.735 3.066-6.133 3.685-1.189.31-2.44.422-3.65.338-1.217-.078-2.398-.338-3.517-.71-2.236-.753-4.205-1.892-6.076-3.025l-2.764-1.688c-.915-.555-1.801-1.034-2.743-1.47-1.864-.858-3.833-1.519-5.781-1.723-.971-.091-1.928-.07-2.807.141-.879.204-1.667.598-2.314 1.167l-.007.007c-.527.465-1.336.415-1.793-.119-.464-.528-.415-1.322.105-1.786.971-.873 2.188-1.47 3.412-1.766 1.23-.302 2.468-.323 3.65-.218 2.37.239 4.564.971 6.632 1.906.513.239 1.027.485 1.526.753.507.267.992.548 1.463.83l2.792 1.681c1.829 1.097 3.657 2.116 5.542 2.735 1.878.626 3.819.781 5.627.296 1.814-.471 3.481-1.555 4.846-2.968 1.371-1.414 2.461-3.137 3.242-4.98.387-.928.703-1.87.921-2.862.246-.992.394-2.012.521-3.038.478-4.129.154-8.426.161-12.829 0-2.201.113-4.466.472-6.695.351-2.237.942-4.473 1.92-6.597.492-1.062 1.076-2.089 1.779-3.053.352-.478.724-.942 1.132-1.3854.197-.225.415-.429.626-.647l.619-.5767c1.463-1.3504 2.68-2.968 3.601-4.7474 1.843-3.5658 2.518-7.7364 2.047-11.7523-.239-2.0115-.76-3.9878-1.554-5.8375-.781-1.8498-1.913-3.5658-3.158-5.2749-1.245-1.702-2.631-3.397-3.911-5.2256-.64-.9143-1.266-1.8708-1.821-2.8765-.549-1.0128-1.055-2.0467-1.463-3.1017-1.695-4.2269-2.448-8.5804-3.552-12.6737-.281-1.0198-.57-2.0396-.907-3.0101-.338-.9776-.725-1.9341-1.161-2.8625-.872-1.8497-1.955-3.5939-3.284-5.0639-1.322-1.4699-2.905-2.6444-4.677-3.3055-.218-.0774-.443-.1618-.668-.2251l-.338-.0985c-.148-.0422-.338-.0914-.499-.1547-.675-.2321-1.323-.5908-1.871-1.0339-1.111-.9002-1.801-2.0466-2.314-3.1367-.513-1.1042-.858-2.2084-1.16-3.2915-.303-1.0831-.549-2.1522-.809-3.2001-.507-2.0748-1.02-4.1284-1.906-5.7883-.218-.4149-.471-.7877-.739-1.1182-.14-.1618-.274-.3236-.422-.4572-.147-.1477-.323-.2954-.492-.429-.696-.5416-1.512-.9495-2.398-1.2167-1.773-.5416-3.784-.5627-5.711-.211-1.948.3657-3.904 1.0901-5.873 1.8919-1.983.8088-3.995 1.709-6.189 2.3842-2.173.6752-4.515 1.1253-6.949.9706-1.224-.0915-2.419-.3235-3.622-.7877-1.181-.4713-2.208-1.1253-3.144-1.8146-1.87-1.3925-3.425-2.9469-5-4.3676-.788-.7103-1.569-1.38548-2.377-1.97626-.802-.59078-1.632-1.09013-2.462-1.40662-.415-.16177-.83-.2743-1.245-.33057-.204-.02813-.415-.04922-.619-.04922-.204 0-.38.00703-.569.03516-.739.09847-1.484.47826-2.202 1.04091-.717.56265-1.392 1.28706-2.032 2.0818-.647.7947-1.259 1.6458-1.892 2.5249l-.971 1.3363-.513.6752-.528.6611c-.682.8369-1.406 1.7301-2.271 2.5671-.859.8369-1.871 1.5824-2.947 2.1521-1.076.5697-2.188.9776-3.292 1.3011l-.83.2321-.83.197c-.555.1406-1.111.218-1.659.3305-.556.0985-1.105.1688-1.66.2602-.514.0915-1.006.1407-1.498.2603-.992.1969-1.963.4853-2.912.8299-.95.3446-1.871.7666-2.757 1.2589-3.566 1.9412-6.541 4.9373-8.777 8.4046-2.237 3.4744-3.777 7.427-4.593 11.5062l-.176.8299c-.07.2954-.148.5908-.232.8791-.176.5767-.387 1.1394-.626 1.688-.485 1.0901-1.083 2.1099-1.758 3.0594-1.351 1.8989-2.989 3.5306-4.79 4.9443-.45.3516-.914.6892-1.385 1.0128-.464.3094-.929.6118-1.393.9072l-2.757 1.7302c-1.807 1.1393-3.552 2.2998-5.028 3.6783-1.484 1.3644-2.652 2.9609-3.461 4.7825-.809 1.8146-1.266 3.7979-1.413 5.8235-.148 2.0255.007 4.0862.414 6.0907.204 1.0057.472 1.9973.802 2.9749.331.9706.725 1.9271 1.168 2.8696 1.758 3.7768 4.269 7.216 7.005 10.4864 1.371 1.6387 2.806 3.2422 4.248 4.8533l.274.302.295.345c.197.225.373.471.556.703.345.485.682.985.964 1.498.583 1.034 1.033 2.124 1.378 3.242.345 1.118.563 2.272.682 3.432.028.289.05.591.071.865l.042.816c.028.535.063 1.069.105 1.59.162 2.075.514 4.079 1.534 5.542.506.731 1.174 1.315 1.976 1.786.802.472 1.737.816 2.729 1.126 1.969.619 4.191 1.026 6.33 2.138 1.055.548 2.088 1.315 2.869 2.278.788.957 1.329 2.054 1.688 3.158.366 1.104.563 2.23.668 3.341.113 1.111.134 2.208.113 3.306 0 .175-.148.316-.324.316-.155-.014-.281-.119-.309-.253Z" fill="#050019"/>
  <path opacity=".55" d="M241.052 32.2358c-.872 1.6176-2.567 2.8835-4.325 2.4967-1.787-.3938-2.842-2.2998-3.109-4.1144-.267-1.8075.014-3.6642-.253-5.4717.879-.7034 2.187-.0774 2.187 1.0479 0 .7666.014 1.5332.127 2.2928.267 1.8075 1.322 3.7205 3.108 4.1144.788.1758 1.569.007 2.265-.3657Z" fill="#fff"/>
  <path d="M162.281 122.062c1.421 1.041 2.553 2.384 3.404 3.868.429.746.781 1.527 1.062 2.335.141.408.26.823.359 1.238.049.211.091.422.133.633l.099.605c.485 3.235.372 6.344.942 9.206.556 2.884 1.66 5.676 3.327 8.053 1.653 2.37 3.903 4.34 6.513 5.402 2.623 1.069 5.612 1.322 8.32.597 1.35-.358 2.616-.963 3.706-1.807 1.076-.844 2.005-1.934 2.806-3.151.809-1.217 1.484-2.553 2.11-3.952.626-1.4 1.294-2.814 2.131-4.185.823-1.372 1.773-2.729 2.975-3.889 1.189-1.161 2.666-2.068 4.241-2.469.169-.042.345.063.394.232.035.141-.021.274-.14.352l-.007.007c-1.281.823-2.321 1.849-3.158 3.045-.83 1.196-1.498 2.511-2.11 3.882-.605 1.379-1.224 2.785-1.948 4.185-.725 1.393-1.463 2.82-2.364 4.199-.9 1.371-2.004 2.686-3.368 3.762-1.372 1.062-2.961 1.815-4.607 2.251-3.306.872-6.815.556-9.938-.703-3.158-1.287-5.753-3.594-7.638-6.302-1.892-2.715-3.116-5.823-3.742-9.03-.626-3.243-.506-6.401-.963-9.305l-.092-.542-.105-.506c-.084-.338-.176-.668-.288-.999-.225-.654-.514-1.294-.858-1.892-.69-1.202-1.611-2.278-2.694-3.073l-.007-.007c-.57-.415-.689-1.21-.274-1.78.414-.555 1.209-.675 1.779-.26Z" fill="#050019"/>
  <path d="M198.319 141.27c5.148.521 10.268 1.062 15.353 1.076 5.071.043 10.149-.443 14.861-2.025l.879-.303c.296-.098.591-.197.872-.33l1.709-.732 1.646-.858c.549-.281 1.076-.619 1.604-.949 1.055-.682 2.088-1.414 3.129-2.166 1.041-.753 2.082-1.541 3.165-2.286 1.09-.746 2.195-1.484 3.369-2.138 1.182-.64 2.405-1.224 3.685-1.66 1.281-.436 2.617-.745 3.967-.858 1.351-.106 2.722 0 4.016.352.169.049.274.218.225.393-.042.155-.183.247-.337.233h-.007c-1.259-.106-2.511-.007-3.728.239-1.21.267-2.391.675-3.517 1.195-2.264 1.041-4.311 2.49-6.315 4.08l-3.032 2.412c-1.026.816-2.081 1.618-3.193 2.363-.562.373-1.118.746-1.716 1.076l-1.779.985-1.843.844c-.302.147-.619.267-.942.379l-.95.352c-2.553.893-5.19 1.484-7.835 1.857-2.651.345-5.317.457-7.961.436-2.645-.028-5.275-.19-7.877-.471-2.602-.268-5.198-.591-7.765-.978-.696-.105-1.174-.752-1.069-1.449.099-.668.718-1.139 1.386-1.069Z" fill="#050019"/>
  <path d="M186.637 38.2848c4.417.6752 8.01 4.248 9.677 8.3906 1.667 4.1425 1.667 8.7773 1.083 13.2082-.583 4.4309-1.744 8.7633-2.306 13.1942-.282 2.2224-.415 4.5152.225 6.6604.64 2.1451 2.166 4.1354 4.297 4.8036 2.799.8791 5.936-.7737 7.532-3.2353 1.604-2.4616 1.963-5.528 1.934-8.4608-.049-5.3593-1.216-10.6341-2.131-15.916-.914-5.2819-1.575-10.7045-.611-15.9793.963-5.2749 3.776-10.4302 8.418-13.1027" fill="#503e9d"/>
  <path opacity=".55" d="M206.4 82.2761c-1.716 1.9059-4.375 3.0313-6.794 2.2717-2.138-.6682-3.664-2.6585-4.297-4.8037-.64-2.1451-.507-4.4449-.226-6.6603.563-4.4309 1.717-8.7703 2.307-13.2012.591-4.4309.584-9.0587-1.083-13.2012-1.667-4.1425-5.261-7.7153-9.677-8.3905 4.149-1.5403 8.875-.0844 11.302 3.615.556.844 1.027 1.7513 1.407 2.6797 1.666 4.1425 1.666 8.7773 1.083 13.2011-.591 4.4309-1.745 8.7703-2.307 13.2012-.282 2.2225-.408 4.5153.225 6.6604.64 2.1451 2.159 4.1355 4.297 4.8036 1.245.3868 2.553.2813 3.763-.1758Z" fill="#fff"/>
  <path d="M186.686 37.968c1.336-.2251 2.729.0352 3.995.5556 1.273.5205 2.384 1.3574 3.368 2.2928.24.2391.486.4783.711.7315.218.2602.45.5134.654.7806.415.5346.809 1.0902 1.146 1.681.69 1.1674 1.21 2.4404 1.583 3.7205.745 2.5741.928 5.2185.879 7.7997-.049 2.5882-.408 5.1271-.851 7.6028-.443 2.4827-.971 4.9091-1.393 7.3215-.401 2.4123-.794 4.8458-.59 7.0753.112 1.1183.372 2.1732.858 3.1016.478.9354 1.181 1.7372 2.004 2.2506.823.5205 1.765.7033 2.736.5697.97-.1196 1.941-.5767 2.771-1.2097.415-.3165.795-.6892 1.118-1.0972.324-.4008.612-.851.858-1.3363.486-.9705.816-2.0536 1.006-3.186.387-2.2576.288-4.7051.098-7.1175-.415-4.8388-1.554-9.6705-2.32-14.65-.38-2.4897-.676-5.0216-.725-7.5887-.056-2.5671.148-5.1623.717-7.7294.275-1.28.626-2.5601 1.154-3.7698.527-1.2097 1.231-2.342 2.018-3.404 1.59-2.1029 3.693-3.8682 6.098-4.7966.169-.0633.352.0211.415.1829.049.1336.007.2813-.098.3657-1.906 1.5614-3.397 3.4322-4.516 5.4929-.569 1.0198-1.019 2.1029-1.448 3.186-.429 1.0831-.844 2.1802-1.126 3.3266-.548 2.2858-.717 4.6911-.675 7.0894.042 2.4053.317 4.8318.696 7.2512.739 4.8458 1.892 9.7338 2.335 14.8188.113 1.273.176 2.5459.176 3.833 0 1.2941-.077 2.6093-.302 3.9315-.225 1.3223-.619 2.6515-1.245 3.9034-.317.6189-.696 1.2238-1.154 1.7935-.457.5626-.963 1.069-1.54 1.505-1.139.8721-2.49 1.5262-3.995 1.7231-.745.0985-1.526.0844-2.285-.0703-.76-.1547-1.484-.4571-2.131-.858-1.294-.8088-2.265-1.9693-2.919-3.2353-.331-.6329-.591-1.3152-.774-1.9903-.183-.6752-.302-1.3644-.366-2.0467-.126-1.3644-.063-2.6937.071-3.9807.14-1.28.33-2.5319.541-3.7768.429-2.4897.964-4.9232 1.393-7.3355.429-2.4194.774-4.8177.809-7.209.042-2.3842-.239-4.7544-.95-6.9487-.358-1.1042-.809-2.1381-1.371-3.1157-.282-.4923-.591-.9635-.922-1.4207-.161-.2321-.344-.4431-.52-.6681l-.549-.64c-.766-.83-1.631-1.5403-2.546-2.2084-.921-.6682-1.898-1.266-3.024-1.8709l-.007-.007c-.162-.0914-.225-.2883-.133-.4571.077-.0844.168-.1407.267-.1618ZM256.602 102.996c.992.092 1.913.689 2.546 1.442.64.759 1.076 1.66 1.322 2.616.479 1.899.338 3.728.598 5.254.064.394.141.724.246 1.062.106.338.24.654.394.949.31.591.711 1.07 1.161 1.309.457.239.963.274 1.491.063.527-.218 1.055-.647 1.449-1.196.197-.274.365-.569.492-.872.127-.288.232-.661.309-1.013.162-.71.225-1.477.24-2.271.021-1.59-.204-3.278-.352-5.071-.127-1.787-.141-3.714.52-5.5493.338-.9003.802-1.7583 1.449-2.4687.626-.7244 1.463-1.287 2.363-1.5754.19-.0633.401.0422.457.2391.057.1688-.021.3446-.168.429l-.007.0071c-1.407.8088-2.209 2.3069-2.525 3.8332-.155.766-.197 1.554-.148 2.363.035.809.155 1.625.302 2.455.275 1.666.704 3.411.76 5.317.021.949-.042 1.934-.288 2.918-.127.5-.268.964-.5 1.47-.225.493-.506.95-.837 1.372-.654.837-1.505 1.575-2.595 2.004-.548.204-1.16.331-1.779.317-.619-.014-1.238-.169-1.794-.436-1.118-.542-1.899-1.463-2.377-2.413-.246-.478-.422-.977-.541-1.484-.12-.506-.19-1.034-.204-1.512-.078-1.934.26-3.629.119-5.169-.077-.753-.274-1.519-.64-2.18-.359-.662-.9-1.224-1.625-1.506h-.007c-.189-.07-.281-.288-.211-.471.064-.155.219-.246.38-.232Z" fill="#050019"/>
  <path d="m270.985 96.0254-.401.204-.176.0914c.064-.0352.12-.0703.183-.1055.127-.0703.26-.1336.394-.1899Z" fill="#fff"/>
  <path d="M270.408 96.3223c.064-.0352.12-.0703.183-.1055-.007.007-.007.007-.007.0141l-.176.0914Z" fill="#fff"/>
  <path d="M263.938 140.027c-1.766.485-2.715 2.447-2.891 4.269-.176 1.821.204 3.664.028 5.486-.176 1.821-1.132 3.784-2.897 4.269-1.977.541-3.995-1.069-4.804-2.954-.851-1.962-.802-4.192-.633-6.323.176-2.131.457-4.297.049-6.4-.408-2.103-1.667-4.185-3.678-4.909" fill="#503e9d"/>
  <path opacity=".55" d="M259.043 153.655c-.261.169-.549.303-.865.387-1.977.549-3.988-1.069-4.804-2.954-.851-1.969-.802-4.192-.633-6.33.176-2.131.464-4.297.056-6.4-.365-1.899-1.434-3.777-3.115-4.663l3.101 1.372c1.182.52 2.068 1.568 2.314 2.834 0 .007 0 .014.007.021.408 2.096.12 4.262-.049 6.4-.176 2.131-.218 4.361.626 6.323.612 1.442 1.906 2.715 3.362 3.01Z" fill="#fff"/>
  <path d="M264.029 140.377c-.71.317-1.216.901-1.547 1.583-.331.682-.492 1.456-.528 2.208-.056 1.548.366 3.221.387 5.156.007.478-.028 1.005-.126 1.519-.099.513-.246 1.019-.464 1.512-.43.97-1.161 1.934-2.251 2.532-.542.295-1.147.478-1.765.527-.619.049-1.238-.042-1.794-.218-1.118-.373-1.997-1.062-2.701-1.871-.344-.408-.654-.844-.907-1.322-.26-.492-.422-.949-.577-1.442-.295-.97-.408-1.948-.436-2.897-.042-1.899.296-3.672.486-5.345.105-.837.175-1.66.168-2.469.007-.816-.077-1.597-.274-2.356-.401-1.512-1.273-2.961-2.722-3.7l-.007-.007c-.183-.091-.253-.309-.162-.492.078-.155.254-.232.415-.19.915.239 1.78.753 2.448 1.449.682.682 1.196 1.512 1.575 2.391.753 1.801.837 3.728.809 5.514-.049 1.794-.19 3.496-.084 5.085.056.788.155 1.554.351 2.258.099.344.226.71.366.991.148.296.331.584.542.844.422.528.977.929 1.512 1.119.541.183 1.041.119 1.484-.141.436-.26.816-.76 1.09-1.364.134-.303.253-.633.345-.971.091-.338.147-.675.19-1.069.182-1.54-.057-3.355.323-5.282.197-.97.584-1.892 1.189-2.687.59-.787 1.484-1.434 2.468-1.575.204-.028.387.113.415.31.021.168-.07.323-.211.386l-.007.014ZM233.716 25.0913c.415 1.2589.507 2.5741.669 3.7697.084.5978.175 1.1816.323 1.695.148.4994.345.9917.605 1.4066.26.422.563.7667.865 1.0269.155.1336.309.2321.464.3165.162.0703.331.1477.5.1688.344.0633.724.007 1.104-.1759.38-.1758.745-.4852 1.055-.8439.309-.3587.562-.7878.738-1.2238.176-.4431.324-.9635.422-1.484.197-1.055.26-2.2084.211-3.404-.014-.5979-.049-1.2097-.091-1.8357-.028-.6259-.07-1.2589-.078-1.8989-.021-1.2801.057-2.6164.422-3.8683.057-.1969.261-.3094.458-.2532.161.0493.26.1899.267.3447v.007c.035 2.4405.83 4.7052 1.273 7.2723.211 1.28.352 2.6374.162 4.0511-.099.7103-.275 1.3995-.577 2.1099-.31.7174-.739 1.3504-1.266 1.913-.528.5627-1.139 1.0691-1.899 1.4137-.746.3446-1.632.5626-2.532.4431-.45-.0422-.879-.1759-1.287-.3447-.401-.1899-.774-.4219-1.09-.7033-.633-.5626-1.076-1.2448-1.358-1.9482-.288-.7033-.464-1.4207-.52-2.1451-.056-.7103-.028-1.3785.035-2.0255.12-1.2941.352-2.4757.401-3.6994v-.0071c.007-.2039.183-.3587.387-.3516.162.0281.295.1336.337.2743Z" fill="#050019"/>
  <path opacity=".3" d="M245.645 33.6276c-.711 1.9271-2.638 3.6432-4.642 3.2001-1.062-.2321-1.864-.9987-2.392-1.9552.563-.4361 1.231-1.0902 1.956-2.0959 2.089-2.9117.485-13.2786.485-13.2786 2.462.7596 4.269 2.8836 4.579 5.4367.098.7806.218 1.5613.316 2.342.288 2.131.443 4.3465-.302 6.3509Z" fill="#050019"/>
  <path d="M167.331 89.8785c.049 1.2167.281 2.4053.401 3.6994.063.6471.091 1.3152.035 2.0255-.057.7245-.232 1.4418-.521 2.1451-.281.7033-.724 1.3855-1.357 1.9482-.317.2813-.689.5133-1.09.7033-.415.169-.844.302-1.287.345-.9.119-1.787-.106-2.532-.443-.76-.3451-1.372-.8515-1.899-1.4141-.528-.5627-.957-1.2027-1.266-1.913-.302-.7103-.478-1.3996-.577-2.1099-.19-1.4137-.042-2.7781.162-4.0511.443-2.567 1.238-4.8317 1.273-7.2722v-.007c0-.204.169-.3657.373-.3587.169 0 .302.1125.344.2673.366 1.2589.443 2.5881.422 3.8682-.007.64-.049 1.28-.077 1.8989-.042.6259-.077 1.2308-.091 1.8356-.05 1.1956.014 2.3491.211 3.404.098.5205.246 1.0409.422 1.484.175.436.429.8651.738 1.2238.309.3586.675.6611 1.055.8439.38.1829.76.2462 1.104.1759.176-.0211.345-.0985.499-.1688.155-.0915.317-.1899.465-.3165.302-.2603.605-.6119.865-1.0269.267-.4149.464-.9072.605-1.4066.147-.5204.239-1.1042.323-1.6949.162-1.1957.253-2.5179.668-3.7698.064-.1969.275-.3024.464-.2321.148.0493.247.1829.254.3306l.014-.0141Z" fill="#050019"/>
  <path d="M225.446 138.232c-.268 1.807.014 4.804-.254 6.618-.267 1.808-1.322 3.721-3.108 4.115-2.005.443-3.932-1.273-4.642-3.201-.746-2.004-.584-4.227-.303-6.351.282-2.124.683-4.269.387-6.386" fill="#503e9d"/>
  <path opacity=".55" d="M223.575 148.163c-.422.387-.922.675-1.498.802-2.005.443-3.932-1.273-4.642-3.201-.746-2.011-.591-4.227-.303-6.351.282-2.124.683-4.269.387-6.386l.014.007c1.646 1.076 2.56 2.975 2.384 4.931-.028.309-.056.612-.084.921-.176 2.138-.232 4.361.612 6.33.577 1.35 1.772 2.567 3.13 2.947Z" fill="#fff"/>
  <path d="M225.804 138.287c.035 1.252.225 2.518.352 3.826.056.654.119 1.316.126 2.005.007.682-.042 1.47-.239 2.208-.19.739-.485 1.477-.977 2.159-.493.669-1.21 1.273-2.089 1.583-.865.323-1.857.33-2.715.084-.858-.246-1.596-.682-2.201-1.224-.605-.534-1.104-1.16-1.498-1.856-.19-.345-.366-.739-.479-1.09-.119-.359-.218-.725-.288-1.091-.281-1.47-.162-2.904.035-4.241.429-2.686 1.28-5.035 1.322-7.567v-.007c0-.204.169-.366.373-.359.162 0 .303.113.345.267.38 1.308.443 2.694.422 4.016-.028 1.329-.155 2.624-.176 3.861-.042 1.238.056 2.42.288 3.489.071.267.127.527.218.781.085.26.169.464.282.696.225.443.52.858.879 1.188.359.331.752.577 1.146.683.394.098.76.07 1.097-.085.338-.14.655-.401.964-.745.309-.345.598-.781.809-1.266.218-.493.365-.999.45-1.604.084-.598.162-1.231.218-1.871.141-1.28.232-2.609.605-3.931.056-.197.26-.31.45-.253.155.042.26.183.267.344h.014Z" fill="#050019"/>
  <path opacity=".3" d="M193.494 113.27c-5.591-2.053-11.984-1.547-17.337-4.17-2.785-1.365-5.338-3.693-7.061-6.435-3.643-.226-7.16-2.216-9.171-5.2613.724.9776 1.779 1.6669 2.982 1.8638 1.203.1969 2.539-.2602 3.207-1.28.324-.4923.471-1.0831.612-1.6528.049-.1899.098-.3868.148-.5767-.021-.8721.07-1.7442.281-2.6023.809-3.3196-.091-7.005-2.356-9.565-1.259-1.4348-2.898-2.5109-4.086-4.0089-1.189-1.4981-1.934-3.9597-1.189-5.718 2.321-5.4506 8.489-8.1513 12.027-12.9057 1.962-2.6445 3.045-5.8235 4.072-8.9532 1.034-3.1297 2.075-6.3158 3.981-9.0024 1.906-2.6867 4.867-4.8318 8.158-4.9302 1.041.5626 2.391 1.3363 3.278 2.124.386.3446.752.8017 1.033 1.3152-1.308 1.1393-2.496 2.4053-3.544 3.7486-4.136 5.296-6.611 11.668-9.966 17.4914-1.449 2.5249-8.735 29.6939 8.552 45.6095 1.997 1.85 4.136 3.496 6.379 4.909ZM216.844 140.561c-.014 1.062.049 2.145-.078 3.193-6.154.239-12.504-.471-18.602-1.224 0 0-.169.014-.408.028-1.808 3.658-3.362 7.674-6.365 10.276-4.354 3.77-11.26 3.657-16.092.52-.745-.478-1.435-1.019-2.082-1.61 3.046 1.99 7.399 1.231 10.241-1.097 2.939-2.406 4.522-6.119 5.429-9.812.746-3.031 1.147-6.266 2.926-8.826 1.99-2.863 5.598-4.452 9.073-4.185 3.474.26 6.723 2.3 8.65 5.212.669 1.012 1.273 2.201 2.392 2.679 2.018.858 4.276-1.083 6.083.148-1.069 1.146-1.153 3.151-1.167 4.698ZM252.087 58.5109c-.457 2.6796-1.343 5.3452-1.097 8.0529-.886-2.2787-2.103-4.0511-3.763-5.8164-1.456-2.0114-3.144-3.8541-5.015-5.4928l-2.834-2.1592c-1.28.2532-2.553.5697-3.798.9002-.344.0915-.682.1829-1.02.2743-1.315.3517-2.679.6822-4.051.9284l-1.645-.5345c2.623-.218 5.042-1.4488 7.342-2.7289 2.3-1.28 4.621-2.6444 7.202-3.1578 2.581-.5135 5.542-.0071 7.279 1.9692 1.794 2.0537 1.85 5.085 1.4 7.7646ZM251.883 135.362c.816 1.871.542 4.009.506 6.049 0 .07-.007.141-.007.204-.879-.535-1.751-1.076-2.616-1.576-4.325-2.496-10.24-4.079-13.961-.759l-1.449-.063c-2.911 1.68-6.027 2.799-9.248 3.516.007-.612.035-1.224.091-1.843.183-1.934.422-3.833.472-5.774 3.094.408 6.533-.457 8.601-2.785 2.975-3.355 7.575-5.197 12.041-4.825 1.54.134 3.207.676 4.002 1.998-.647.865-.479 2.089-.021 3.066.45.971 1.16 1.808 1.589 2.792Z" fill="#050019"/>
  <path opacity=".3" d="M282.034 99.6188c-4.459 3.9812-5.739 10.4162-5.88 16.3872-.133 5.971.612 12.055-.851 17.843-1.456 5.788-5.936 11.422-11.907 11.759-2.279.127-5.408-4.48-5.148-6.027.401-2.363-.155-4.874-1.519-6.843-1.358-1.97-3.418-3.65-5.774-4.115 1.709-.52 3.565-.126 5.232.5 1.667.626 3.264 1.484 5.001 1.906.83.197 1.772.281 2.475-.197.669-.457.957-1.329.894-2.138-.064-.809-.415-1.562-.809-2.272-.971-1.744-2.195-3.341-3.643-4.726-1.006-.964-2.152-1.871-2.673-3.165-.52-1.294-.07-3.109 1.273-3.468 1.744-.464 3.074 1.681 4.825 2.117 1.308.331 2.708-.393 3.516-1.469.809-1.077 1.14-2.441 1.323-3.77.443-3.116-.19-6.696-.331-9.847-.148-3.263 1.526-6.3083 3.292-9.0512 1.758-2.75 4.585-6.6745 4.325-9.9308-.429-5.3874-6.035-8.6648-8.7-13.3629-2.363-4.1637-2.279-9.2134-2.426-13.996-.141-4.7825-.753-9.9659-4.045-13.4332-3.39-3.5658-9.276-4.9654-10.88-9.6143-1.076-3.1157.274-6.4846 1.379-9.5932 1.104-3.1016 1.899-6.8151-.028-9.4877.351-.1266.703-.2391 1.062-.3376 4.191 4.5645 2.799 15.9863 8.756 17.5195 5.943 1.5332 9.628 7.5114 11.464 13.363 1.843 5.8515 2.504 12.1391 5.429 17.5336 2.371 4.3535 6.091 7.87 8.384 12.2657 4.36 8.3624 3.01 19.3833-4.016 25.6499ZM149.874 80.9682c-1.012-.2883-1.603-1.3503-1.315-2.3631l2.546-8.918c.289-1.0128 1.351-1.6035 2.363-1.3152 1.013.2884 1.604 1.3504 1.316 2.3631l-2.546 8.918c-.296 1.0128-1.351 1.6036-2.364 1.3152Z" fill="#050019"/>
  <path d="M148.243 79.73c-1.013-.2883-1.604-1.3503-1.315-2.3631l2.546-8.9181c.288-1.0127 1.35-1.6035 2.363-1.3152 1.013.2884 1.603 1.3504 1.315 2.3632l-2.546 8.918c-.295 1.0128-1.35 1.6036-2.363 1.3152Z" fill="#fff"/>
  <path opacity=".3" d="M182.023 129.843c-.401-.978.063-2.089 1.041-2.49l8.58-3.523c.978-.401 2.089.063 2.49 1.04.401.978-.063 2.089-1.041 2.49l-8.58 3.524c-.971.401-2.089-.071-2.49-1.041Z" fill="#050019"/>
  <path d="M179.899 128.421c-.401-.978.063-2.089 1.041-2.49l8.58-3.523c.978-.401 2.089.063 2.49 1.041.401.977-.063 2.088-1.041 2.489l-8.58 3.524c-.971.401-2.089-.07-2.49-1.041Z" fill="#fff"/>
  <path opacity=".3" d="M186.236 33.768c-.169-1.0409.541-2.0185 1.582-2.1873l9.157-1.4699c1.041-.1688 2.019.5415 2.188 1.5824.169 1.0409-.542 2.0185-1.583 2.1873l-9.157 1.4699c-1.041.1688-2.018-.5415-2.187-1.5824Z" fill="#050019"/>
  <path d="M184.492 31.8969c-.169-1.0409.541-2.0185 1.582-2.1873l9.157-1.4699c1.041-.1688 2.019.5415 2.187 1.5824.169 1.0409-.541 2.0185-1.582 2.1873l-9.157 1.4699c-1.041.1688-2.019-.5415-2.187-1.5824Z" fill="#fff"/>
  <path opacity=".3" d="M244.238 121.922c-.802-.683-.893-1.892-.211-2.694l6.027-7.054c.683-.802 1.892-.894 2.694-.211.802.682.893 1.892.211 2.693l-6.027 7.055c-.69.801-1.892.893-2.694.211Z" fill="#050019"/>
  <path d="M241.699 121.627c-.802-.683-.893-1.892-.211-2.694l6.027-7.054c.683-.802 1.892-.894 2.694-.211.802.682.893 1.892.211 2.693l-6.027 7.055c-.69.801-1.892.9-2.694.211Z" fill="#fff"/>
  <path opacity=".3" d="M264.057 94.1891c-.801-.6822-.893-1.8919-.211-2.6937l6.028-7.0542c.682-.8018 1.892-.8932 2.693-.211.802.6822.894 1.8919.211 2.6937l-6.027 7.0542c-.682.8018-1.892.9002-2.694.211Z" fill="#050019"/>
  <path d="M261.518 93.8943c-.801-.6822-.893-1.8919-.211-2.6937l6.028-7.0543c.682-.8018 1.892-.8932 2.693-.211.802.6822.894 1.8919.211 2.6937l-6.027 7.0543c-.682.8018-1.892.9003-2.694.211Z" fill="#fff"/>
  <path opacity=".3" d="M255.54 66.3745c.619-.858 1.815-1.0479 2.666-.429l7.525 5.4296c.858.6189 1.048 1.8145.429 2.6655-.619.858-1.814 1.0479-2.665.429l-7.526-5.4295c-.851-.6189-1.048-1.8146-.429-2.6656Z" fill="#050019"/>
  <path d="M255.625 63.814c.618-.858 1.814-1.0479 2.665-.429l7.526 5.4296c.858.6189 1.047 1.8146.429 2.6656-.619.858-1.815 1.0479-2.666.429l-7.525-5.4296c-.851-.6119-1.048-1.8075-.429-2.6656Z" fill="#fff"/>
  <path opacity=".3" d="M226.198 44.0797c-.246-1.0269.394-2.0537 1.421-2.2999l9.023-2.1451c1.027-.2461 2.054.3939 2.3 1.4207.246 1.0269-.394 2.0537-1.421 2.2999l-9.023 2.1451c-1.027.2391-2.054-.3939-2.3-1.4207Z" fill="#050019"/>
  <path d="M224.32 42.3414c-.246-1.0268.394-2.0537 1.421-2.2998l9.023-2.1451c1.027-.2462 2.054.3938 2.3 1.4207.246 1.0268-.394 2.0536-1.421 2.2998l-9.023 2.1451c-1.027.2391-2.054-.3939-2.3-1.4207Z" fill="#fff"/>
  <path opacity=".3" d="M169.736 54.9892c-1.027.2321-2.047-.4219-2.279-1.4488l-2.011-9.0586c-.232-1.0268.422-2.0466 1.449-2.2787 1.027-.2321 2.046.4219 2.278 1.4488l2.012 9.0586c.225 1.0269-.422 2.0466-1.449 2.2787Z" fill="#050019"/>
  <path d="M167.049 54.9892c-1.026.2321-2.046-.4219-2.278-1.4488l-2.012-9.0586c-.232-1.0268.422-2.0466 1.449-2.2787 1.027-.2321 2.047.4219 2.279 1.4488l2.011 9.0586c.225 1.0269-.422 2.0466-1.449 2.2787Z" fill="#fff"/>
  <path opacity=".3" d="M229.637 131.114c-1.027.232-2.046-.422-2.278-1.449l-2.012-9.058c-.232-1.027.422-2.047 1.449-2.279 1.027-.232 2.047.422 2.279 1.449l2.011 9.059c.232 1.026-.415 2.046-1.449 2.278Z" fill="#050019"/>
  <path d="M226.958 131.114c-1.027.232-2.047-.422-2.279-1.449l-2.012-9.058c-.232-1.027.422-2.047 1.449-2.279 1.027-.232 2.047.422 2.279 1.449l2.012 9.059c.225 1.026-.422 2.046-1.449 2.278Z" fill="#fff"/>
  <path opacity=".3" d="M169.736 118.806c-1.027.232-2.047-.422-2.279-1.449l-2.011-9.059c-.232-1.027.422-2.046 1.449-2.279 1.027-.232 2.046.422 2.278 1.449l2.012 9.059c.225 1.027-.422 2.047-1.449 2.279Z" fill="#050019"/>
  <path d="M167.049 118.806c-1.026.232-2.046-.422-2.278-1.449l-2.012-9.059c-.232-1.027.422-2.046 1.449-2.279 1.027-.232 2.047.422 2.279 1.449l2.011 9.059c.225 1.027-.422 2.047-1.449 2.279Z" fill="#fff"/>
  <path opacity=".3" d="M219.432 27.1587c-.675.8088-1.878.9213-2.687.2461l-7.131-5.9289c-.809-.6752-.922-1.8778-.246-2.6867.675-.8088 1.878-.9213 2.686-.2461l7.132 5.9289c.809.6752.921 1.8779.246 2.6867Z" fill="#050019"/>
  <path d="M216.619 26.4399c-.675.8088-1.878.9214-2.687.2462l-7.131-5.9289c-.809-.6752-.922-1.8779-.247-2.6867.676-.8088 1.878-.9213 2.687-.2462l7.132 5.929c.809.6681.921 1.8778.246 2.6866Z" fill="#fff"/>
</svg>