<svg version="1.1"
  xmlns="http://www.w3.org/2000/svg"
  xmlns:xlink="http://www.w3.org/1999/xlink">
  <defs>
    <!-- Sidebar Menu Icons -->
    <symbol id="home" viewBox="0 0 24 24">
      <path fill-rule="evenodd" clip-rule="evenodd" d="M24 13.0534L12 1L0 13.0534H2.31282V24H10.7891V16.7023H13.2109V24H21.6872V13.0534H24ZM8.36731 14.2697V21.5674H4.73461V11.7277L12 4.42993L19.2654 11.7277V21.5674H15.6327V14.2697H13.2109H10.7891H8.36731Z" style="fill: var(--icon-color, currentColor)"/>
    </symbol>
    <symbol id="order" viewBox="0 0 24 24">
      <path fill-rule="evenodd" clip-rule="evenodd" d="M2.66667 0C1.18667 0 0 1.18667 0 2.66667V21.3333C0 22.8133 1.18667 24 2.66667 24H21.3333C22.8133 24 24 22.8133 24 21.3333V2.66667C24 1.18667 22.8133 0 21.3333 0H2.66667ZM2.66667 2.66667H21.3333V21.3333H2.66667V2.66667ZM5.33333 8V5.33333H18.6667V8H5.33333ZM5.33333 10.6667V13.3333H18.6667V10.6667H5.33333ZM5.33333 18.6667V16H14.6667V18.6667H5.33333Z" style="fill: var(--icon-color, currentColor)"/>
    </symbol>
    <symbol id="notification" viewBox="0 0 24 24">
      <path fill-rule="evenodd" clip-rule="evenodd" d="M2.4 3H21.6C22.9255 3 24 4.06332 24 5.375V19.625C24 20.9367 22.9255 22 21.6 22H2.4C1.068 22 0 20.9312 0 19.625V5.375C0 4.05687 1.068 3 2.4 3ZM12 11.3125L21.6 5.375H2.4L12 11.3125ZM21.6 8.18937V19.625H2.4V8.18937L12 14.115L21.6 8.18937Z" style="fill: var(--icon-color, currentColor)"/>
    </symbol>
    <symbol id="help-and-support" viewBox="0 0 24 24">
      <path fill-rule="evenodd" clip-rule="evenodd" d="M0 12C0 5.376 5.376 0 12 0C18.624 0 24 5.376 24 12C24 18.624 18.624 24 12 24C5.376 24 0 18.624 0 12ZM13.2 16.8V19.2H10.8V16.8H13.2ZM12 21.6C6.708 21.6 2.4 17.292 2.4 12C2.4 6.708 6.708 2.4 12 2.4C17.292 2.4 21.6 6.708 21.6 12C21.6 17.292 17.292 21.6 12 21.6ZM7.2 9.6C7.2 6.948 9.348 4.8 12 4.8C14.652 4.8 16.8 6.948 16.8 9.6C16.8 11.1395 15.852 11.968 14.9289 12.7746C14.0532 13.5399 13.2 14.2856 13.2 15.6H10.8C10.8 13.4145 11.9305 12.5479 12.9245 11.786C13.7043 11.1883 14.4 10.6551 14.4 9.6C14.4 8.28 13.32 7.2 12 7.2C10.68 7.2 9.6 8.28 9.6 9.6H7.2Z" style="fill: var(--icon-color, currentColor)"/>
    </symbol>
    <symbol id="setting" viewBox="0 0 24 24">
      <path fill-rule="evenodd" clip-rule="evenodd" d="M9.53323 24C9.22489 24 8.96588 23.784 8.91654 23.496L8.46019 20.316C7.68316 20.016 7.01713 19.608 6.37577 19.128L3.30464 20.34C3.0333 20.436 2.70029 20.34 2.55228 20.076L0.0855125 15.924C-0.0748274 15.66 -0.00082439 15.336 0.233519 15.156L2.83596 13.164L2.74962 12L2.83596 10.8L0.233519 8.844C-0.00082439 8.664 -0.0748274 8.34 0.0855125 8.076L2.55228 3.924C2.70029 3.66 3.0333 3.552 3.30464 3.66L6.37577 4.86C7.01713 4.392 7.68316 3.984 8.46019 3.684L8.91654 0.504C8.96588 0.216 9.22489 0 9.53323 0H14.4668C14.7751 0 15.0341 0.216 15.0835 0.504L15.5398 3.684C16.3168 3.984 16.9829 4.392 17.6242 4.86L20.6954 3.66C20.9667 3.552 21.2997 3.66 21.4477 3.924L23.9145 8.076C24.0748 8.34 24.0008 8.664 23.7665 8.844L21.164 10.8L21.2504 12L21.164 13.2L23.7665 15.156C24.0008 15.336 24.0748 15.66 23.9145 15.924L21.4477 20.076C21.2997 20.34 20.9667 20.448 20.6954 20.34L17.6242 19.14C16.9829 19.608 16.3168 20.016 15.5398 20.316L15.0835 23.496C15.0341 23.784 14.7751 24 14.4668 24H9.53323ZM16.9335 12C16.9335 9.34903 14.7247 7.2 12 7.2C9.27528 7.2 7.06646 9.34903 7.06646 12C7.06646 14.651 9.27528 16.8 12 16.8C14.7247 16.8 16.9335 14.651 16.9335 12ZM9.53323 12C9.53323 10.6745 10.6376 9.6 12 9.6C13.3624 9.6 14.4668 10.6745 14.4668 12C14.4668 13.3255 13.3624 14.4 12 14.4C10.6376 14.4 9.53323 13.3255 9.53323 12ZM10.6186 5.532L11.075 2.4H12.925L13.3814 5.544C14.8615 5.832 16.1688 6.6 17.1185 7.668L20.091 6.42L21.016 7.98L18.4136 9.84C18.9069 11.244 18.9069 12.768 18.4136 14.172L21.0284 16.032L20.1033 17.592L17.1062 16.344C16.1565 17.4 14.8615 18.168 13.3937 18.468L12.9374 21.6H11.0626L10.6063 18.456C9.13855 18.168 7.8435 17.4 6.89379 16.344L3.89667 17.592L2.97163 16.032L5.5864 14.16C5.09305 12.768 5.09305 11.244 5.5864 9.84L2.98396 7.98L3.909 6.42L6.88146 7.668C7.83116 6.6 9.13855 5.832 10.6186 5.532Z" style="fill: var(--icon-color, currentColor)"/>
    </symbol>
    <!-- Sidebar Menu Icons -->

    <!-- Clock Icon -->
    <symbol id="clock" viewBox="0 0 32 32">
      <path fill-rule="evenodd" clip-rule="evenodd" d="M16 0C20.2435 0 24.3131 1.68571 27.3137 4.68629C30.3143 7.68687 32 11.7565 32 16C32 24.8366 24.8366 32 16 32C7.152 32 0 24.8 0 16C0 7.16344 7.16344 0 16 0ZM16 28.8C23.0692 28.8 28.8 23.0693 28.8 16C28.8 8.93076 23.0692 3.20001 16 3.20001C8.93075 3.20001 3.2 8.93076 3.2 16C3.2 23.0693 8.93075 28.8 16 28.8ZM16.8 16.4V8H14.4V17.6L22.8 22.64L24 20.672L16.8 16.4Z" style="fill: var(--icon-color, currentColor)"/>
    </symbol>

    <!-- UpDown Icon -->
    <symbol id="up-down" viewBox="0 0 24 24">
      <path d="M6.645 15L12 20.5674L17.355 15L19 16.7224L12 24L5 16.7224L6.645 15Z M17.355 9L12 3.43261L6.645 9L5 7.27763L12 0L19 7.27763L17.355 9Z" style="fill: var(--icon-color, currentColor)"/>
    </symbol>

    <!-- phone -->
    <symbol id="phone" viewBox="0 0 18 18">
      <path d="M3.62 7.79C5.06 10.62 7.38 12.94 10.21 14.38L12.41 12.18C12.69 11.9 13.08 11.82 13.43 11.93C14.55 12.3 15.75 12.5 17 12.5C17.5523 12.5 18 12.9477 18 13.5V17C18 17.5523 17.5523 18 17 18C7.61116 18 0 10.3888 0 1C0 0.734784 0.105357 0.48043 0.292893 0.292893C0.48043 0.105357 0.734784 0 1 0H4.5C5.05228 0 5.5 0.447715 5.5 1C5.5 2.25 5.7 3.45 6.07 4.57C6.18 4.92 6.1 5.31 5.82 5.59L3.62 7.79Z" style="fill: var(--icon-color, currentColor)"/>
    </symbol>

    <!-- world -->
    <symbol id="phone" viewBox="0 0 20 20">
      <path d="M2.25197 8C2.08412 8.6534 1.99945 9.32538 1.99997 10C1.99997 10.69 2.08797 11.36 2.25197 12H5.09997C4.96515 10.6701 4.96515 9.32993 5.09997 8H2.25197ZM3.06997 6H5.41597C5.68197 4.783 6.06597 3.693 6.53697 2.786C5.08515 3.48542 3.87719 4.60523 3.06997 6ZM17.748 8H14.9C15.0348 9.32993 15.0348 10.6701 14.9 12H17.748C18.0846 10.6879 18.0846 9.31208 17.748 8ZM16.93 6C16.1228 4.60523 14.9148 3.48542 13.463 2.786C13.935 3.693 14.318 4.783 14.584 6H16.93ZM7.11197 8C7.03705 8.66403 6.99965 9.33176 6.99997 10C6.99997 10.685 7.03797 11.355 7.11197 12H12.888C13.0386 10.6709 13.0386 9.32908 12.888 8H7.11197ZM7.46997 6H12.53C12.348 5.2483 12.0855 4.51841 11.747 3.823C11.119 2.568 10.447 2 9.99997 2C9.55197 2 8.88097 2.568 8.25297 3.823C7.93797 4.455 7.67297 5.19 7.46997 6ZM3.06997 14C3.87719 15.3948 5.08515 16.5146 6.53697 17.214C6.06497 16.307 5.68197 15.217 5.41597 14H3.06997ZM16.93 14H14.584C14.318 15.217 13.934 16.307 13.463 17.214C14.9148 16.5146 16.1228 15.3948 16.93 14ZM7.46997 14C7.67297 14.81 7.93797 15.545 8.25297 16.177C8.88097 17.432 9.55297 18 9.99997 18C10.448 18 11.119 17.432 11.747 16.177C12.062 15.545 12.327 14.81 12.53 14H7.46997ZM9.99997 20C4.47697 20 -3.05176e-05 15.523 -3.05176e-05 10C-3.05176e-05 4.477 4.47697 0 9.99997 0C15.523 0 20 4.477 20 10C20 15.523 15.523 20 9.99997 20Z" style="fill: var(--icon-color, currentColor)"/>
    </symbol>

    <!-- Close Icon -->
    <symbol id="close" viewBox="0 0 12 12">
      <path d="M4.66667 6L0 1.33333L1.33333 0L6 4.66667L10.6667 0L12 1.33333L7.33333 6L12 10.6667L10.6667 12L6 7.33333L1.33333 12L0 10.6667L4.66667 6Z" style="fill: var(--icon-color, currentColor)"/>
    </symbol>

    <!-- Arrow Right -->
    <symbol id="arrow-right" viewBox="0 0 16 16">
      <path d="M11.92 7.35443L8.4576 3.62471L9.96587 2L16 8.5L9.96587 15L8.4576 13.3753L11.9125 9.65247H0V7.35443H11.92Z" style="fill: var(--icon-color, currentColor)"/>
    </symbol>

    <!-- Angle Left -->
    <symbol id="angle-left" viewBox="0 0 16 16">
      <path d="M13 1.88L6.81402 8L13 14.12L11.0863 16L3 8L11.0863 0L13 1.88Z" style="fill: var(--icon-color, currentColor)"/>
    </symbol>
    <!-- Angle Down -->
    <symbol id="angle-right" viewBox="0 0 16 16">
      <path d="M1.88 3L8 9.18598L14.12 3L16 4.91375L8 13L0 4.91375L1.88 3Z" style="fill: var(--icon-color, currentColor)"/>
    </symbol>

    <!-- Restaurant -->
    <symbol id="restaurant" viewBox="0 0 24 24">
      <path fill-rule="evenodd" clip-rule="evenodd" d="M1.33333 2H22.6667V4.625H1.33333V2ZM24 15.125V12.5L22.6667 5.9375H1.33333L0 12.5V15.125H1.33333V23H14.6667V15.125H20V23H22.6667V15.125H24ZM12 20.375H4V15.125H12V20.375Z" style="fill: var(--icon-color, currentColor)"/>
    </symbol>

    <!-- Filter -->
    <symbol id="filter" viewBox="0 0 20 20">
      <path fill-rule="evenodd" clip-rule="evenodd" d="M0 3V5.33333H20V3H0ZM3.33333 11.1667H16.6667V8.83333H3.33333V11.1667ZM12.2222 17H7.77778V14.6667H12.2222V17Z" style="fill: var(--icon-color, currentColor)"/>
    </symbol>

    <!-- Cart -->
    <symbol id="cart" viewBox="0 0 20 20">
      <path fill-rule="evenodd" clip-rule="evenodd" d="M0 0V2H2L5.6 9.59L4.24 12.04C4.09 12.32 4 12.65 4 13C4 14.1046 4.89543 15 6 15H18V13H6.42C6.28193 13 6.17 12.8881 6.17 12.75C6.17 12.7 6.18 12.66 6.2 12.63L7.1 11H14.55C15.3 11 15.96 10.58 16.3 9.97L19.88 3.5C19.95 3.34 20 3.17 20 3C20 2.44772 19.5523 2 19 2H4.21L3.27 0H0ZM16 16C14.89 16 14 16.89 14 18C14 19.1046 14.8954 20 16 20C17.1046 20 18 19.1046 18 18C18 16.89 17.1 16 16 16ZM4 18C4 16.89 4.89 16 6 16C7.1 16 8 16.89 8 18C8 19.1046 7.10457 20 6 20C4.89543 20 4 19.1046 4 18Z" style="fill: var(--icon-color, currentColor)"/>
    </symbol>

    <!-- Search -->
    <symbol id="search" viewBox="0 0 20 20">
      <path fill-rule="evenodd" clip-rule="evenodd" d="M14.8571 7.42857C14.8571 3.32588 11.5313 0 7.42857 0C3.32588 0 0 3.32588 0 7.42857C0 11.5313 3.32588 14.8571 7.42857 14.8571C9.26857 14.8571 10.96 14.1829 12.2629 13.0743L12.5714 13.3829V14.2857L18.2857 20L20 18.2857L14.2857 12.5714H13.3829L13.0743 12.2629C14.1829 10.96 14.8571 9.26857 14.8571 7.42857ZM2.28571 7.42857C2.28571 4.57143 4.57143 2.28571 7.42857 2.28571C10.2857 2.28571 12.5714 4.57143 12.5714 7.42857C12.5714 10.2857 10.2857 12.5714 7.42857 12.5714C4.57143 12.5714 2.28571 10.2857 2.28571 7.42857Z" style="fill: var(--icon-color, currentColor)"/>
    </symbol>

    <!-- Fire -->
    <symbol id="fire" viewBox="0 0 20 20">
      <path fill-rule="evenodd" clip-rule="evenodd" d="M18.3945 9.95541C18.6993 10.2642 19.0086 10.5777 19.2765 10.9333L19.211 10.9467C19.6433 11.4533 19.997 12 20.259 12.6133L20.4293 12.96C21.6739 16 20.8223 19.5467 18.4642 21.76C16.3551 23.7333 13.4075 24.2533 10.6564 23.8933C8.07559 23.56 5.6782 21.9067 4.31576 19.6C3.89654 18.8933 3.55593 18.0933 3.37253 17.2933C3.14982 16.6267 3.07122 15.96 3.01881 15.2933C2.83541 12.4 4.00135 9.33333 6.14982 7.52C5.16729 9.70667 5.4031 12.44 6.84414 14.3467C6.90965 14.44 6.96205 14.5067 7.04065 14.5733C7.27646 14.7867 7.59087 14.8667 7.87908 14.7333C8.14109 14.6267 8.3376 14.36 8.3376 14.0667C8.3376 13.8933 8.28519 13.76 8.23279 13.6267C6.66074 9.42667 7.97078 4.53333 11.2983 1.76C12.2153 1 13.3158 0.306667 14.5079 0C13.3158 2.46667 13.7088 5.68 15.6214 7.62667C16.0688 8.08199 16.5624 8.45897 17.0562 8.83616C17.4735 9.15483 17.8909 9.47365 18.2808 9.84C18.3186 9.87844 18.3565 9.91689 18.3945 9.95541ZM13.8005 20.1333C14.259 20 14.8485 19.6533 15.2153 19.3333H15.2022C15.9883 18.6 16.4468 17.4 16.4075 16.3067C16.4075 16.1067 16.3813 15.92 16.3289 15.7333C16.1158 14.5535 15.3814 13.893 14.62 13.2082C14.2112 12.8405 13.7946 12.4658 13.4468 12C13.1455 11.6 12.8835 11.0933 12.6607 10.5867C12.2939 11.5067 12.2677 12.3467 12.4249 13.3333C12.4738 13.628 12.5421 13.9105 12.6094 14.1889C12.7765 14.8805 12.9374 15.5461 12.7786 16.3067C12.5166 17.4933 11.5996 18.6667 10.0407 19.04C10.9184 19.92 12.3594 20.6667 13.8005 20.1333Z" style="fill: var(--icon-color, currentColor)"/>
    </symbol>



    <!-- <symbol id="" viewBox="0 0 "></symbol> -->
  </defs>
</svg>